<svg viewBox="0 0 32 32" fill="none" xmlns="http://www.w3.org/2000/svg">
  <path d="M16 4C9.372 4 4 9.373 4 16C4 22.627 9.372 28 16 28C22.628 28 28 22.627 28 16C28 9.373 22.628 4 16 4ZM25.885 15.441C23.31 15.019 20.942 14.996 18.782 15.368C18.538 14.805 18.285 14.243 18.015 13.688C20.325 12.688 22.18 11.33 23.563 9.606C24.913 11.2 25.76 13.225 25.885 15.441ZM22.043 8.159C20.838 9.713 19.175 10.942 17.057 11.839C16.041 9.978 14.879 8.163 13.569 6.401C14.348 6.204 15.16 6.087 16 6.087C18.275 6.087 20.368 6.866 22.043 8.159ZM11.527 7.166C12.858 8.908 14.038 10.704 15.064 12.547C12.634 13.262 9.733 13.629 6.38 13.652C7.072 10.817 8.981 8.459 11.527 7.166V7.166ZM6.087 16L6.1 15.744C9.949 15.739 13.269 15.296 16.05 14.422C16.283 14.897 16.506 15.374 16.72 15.854C13.34 16.911 10.555 19.076 8.383 22.334C6.951 20.615 6.087 18.407 6.087 16V16ZM9.916 23.81C11.885 20.722 14.398 18.712 17.514 17.783C18.442 20.203 19.123 22.693 19.557 25.243C16.208 26.534 12.604 25.909 9.916 23.81ZM21.502 24.24C21.064 21.887 20.422 19.587 19.582 17.343C21.458 17.078 23.522 17.147 25.781 17.539C25.344 20.325 23.753 22.731 21.502 24.24Z" fill="currentColor"/>
</svg>
