<svg viewBox="0 0 73 64" fill="none" xmlns="http://www.w3.org/2000/svg">
  <path fill-rule="evenodd" clip-rule="evenodd" d="M55.8986 1.56643C55.3383 0.596997 54.3042 0 53.1853 0C53.1853 0 45.5265 1.2549 36.5 1.2549C27.4735 1.2549 19.8147 0 19.8147 0C18.6958 0 17.6617 0.596996 17.1014 1.56643L0.421209 30.4292C-0.140403 31.401 -0.140403 32.599 0.421209 33.5708L17.1014 62.4336C17.6617 63.403 18.6958 64 19.8147 64C19.8147 64 27.4735 62.7451 36.5 62.7451C45.5265 62.7451 53.1853 64 53.1853 64C54.3042 64 55.3383 63.403 55.8986 62.4336L72.5788 33.5708C73.1404 32.599 73.1404 31.401 72.5788 30.4292L55.8986 1.56643ZM48.275 52.5796C48.2632 52.5731 48.2515 52.5664 48.2398 52.5596L45.5265 50.9708C44.7773 50.5321 44.5393 49.5749 44.8946 48.7843C45.6667 47.0667 45.8302 45.6581 45.7056 44.5131C45.5466 43.0519 44.8822 41.6938 43.7991 40.413C41.5487 37.7519 37.8756 35.8838 35.3758 34.9308C32.5265 33.8446 27.6645 31.506 24.3888 27.6325C22.7088 25.6459 21.3624 23.1547 21.0371 20.1644C20.8777 18.6995 20.9718 17.1908 21.335 15.6464C19.9495 19.0615 19.5594 23.7723 21.0324 27.0608L18.5907 31.2061C18.3018 31.6965 18.3018 32.3044 18.5907 32.7948L28.0324 48.8238C28.4724 49.5708 28.2218 50.5321 27.4725 50.9708L24.7593 52.5596C24.0101 52.9983 23.046 52.7484 22.606 52.0013L11.2925 32.7948C11.0036 32.3044 11.0036 31.6965 11.2925 31.2061L22.606 11.9996C23.0245 11.2891 23.9171 11.0283 24.648 11.382C24.6856 11.4001 24.7227 11.4199 24.7593 11.4414L27.4725 13.0301C28.2218 13.4689 28.4598 14.4261 28.1044 15.2166C27.3324 16.9343 27.1689 18.3429 27.2935 19.4878C27.4525 20.949 28.1168 22.3071 29.2 23.5879C31.4504 26.249 35.1235 28.1171 37.6233 29.0701C40.4726 30.1563 45.3346 32.4949 48.6103 36.3684C50.2902 38.355 51.6367 40.8463 51.962 43.8365C52.1214 45.3015 52.0273 46.8101 51.6641 48.3545C53.0495 44.9394 53.4397 40.2287 51.9666 36.9401L54.4084 32.7949C54.6973 32.3044 54.6973 31.6965 54.4084 31.2061L44.9667 15.1771C44.5266 14.4301 44.7773 13.4689 45.5265 13.0301L48.2398 11.4414C48.989 11.0026 49.9531 11.2526 50.3931 11.9996L61.7066 31.2061C61.9954 31.6965 61.9954 32.3044 61.7066 32.7949L50.3931 52.0013C50.0081 52.655 49.2218 52.928 48.5294 52.6922C48.4428 52.6627 48.3577 52.6253 48.275 52.5796Z" fill="currentColor"/>
</svg>
