<svg class="theme-icon" viewBox="0 0 32 32" fill="none" xmlns="http://www.w3.org/2000/svg">
  <circle class="theme-icon__sun" cx="16" cy="16" r="10" stroke="currentColor" stroke-opacity="0.2" stroke-width="2"/>
  <path class="theme-icon__moon" d="M26 16C26 21.5487 21.6298 26 16.2959 26C15.6971 26 15.3103 25.9608 15.0716 25.9088C15.0743 25.9021 15.0771 25.8953 15.0801 25.8884C15.191 25.6275 15.3837 25.2912 15.6629 24.8327C15.7331 24.7174 15.8072 24.5971 15.8845 24.4716C16.9953 22.668 18.7555 19.81 18.7555 16C18.7555 12.19 16.9953 9.33196 15.8845 7.52841C15.8072 7.40294 15.7331 7.28257 15.6629 7.16734C15.3837 6.7088 15.191 6.37249 15.0801 6.11163C15.0771 6.10467 15.0743 6.09787 15.0716 6.09124C15.3103 6.03915 15.6971 6 16.2959 6C21.6298 6 26 10.4513 26 16ZM14.8495 25.8398C14.8495 25.8398 14.85 25.84 14.8509 25.8406L14.8495 25.8398ZM14.8495 6.16021C14.8495 6.16021 14.85 6.15993 14.8509 6.1594L14.8495 6.16021Z" stroke="currentColor" stroke-width="2"/>
</svg>
