<svg width="1024" height="1024" viewBox="0 0 1024 1024" fill="none" xmlns="http://www.w3.org/2000/svg">
<rect width="1024" height="1024" rx="120" fill="#1C2024"/>
<g clip-path="url(#clip0)">
<path fill-rule="evenodd" clip-rule="evenodd" d="M713.965 195.272C711.1 190.323 706.981 186.215 702.021 183.359C697.061 180.502 691.436 178.999 685.709 179C685.709 179 605.972 192.04 512.002 192.04C418.033 192.04 338.296 179 338.296 179C332.568 178.997 326.94 180.5 321.978 183.356C317.017 186.212 312.896 190.322 310.03 195.272L136.385 495.187C133.512 500.149 132 505.779 132 511.51C132 517.242 133.512 522.872 136.385 527.834L310.04 827.739C312.906 832.685 317.026 836.792 321.986 839.646C326.946 842.5 332.57 844.002 338.296 844C338.296 844 418.033 830.96 512.002 830.96C605.972 830.96 685.709 844 685.709 844C691.436 844.001 697.061 842.498 702.021 839.641C706.981 836.785 711.1 832.677 713.965 827.728L887.62 527.824C890.493 522.861 892.005 517.231 892.005 511.5C892.005 505.769 890.493 500.139 887.62 495.176L713.965 195.272ZM634.592 725.339C634.469 725.271 634.348 725.202 634.227 725.131L605.972 708.61C598.174 704.059 595.696 694.115 599.403 685.896C607.44 668.056 609.137 653.415 607.835 641.528C606.19 626.337 599.267 612.227 587.992 598.916C564.567 571.267 526.328 551.847 500.301 541.955C470.629 530.671 420.022 506.367 385.915 466.124C368.425 445.478 354.401 419.595 351.018 388.517C349.362 372.806 350.411 356.929 354.12 341.572C339.691 377.056 335.63 426.006 350.966 460.181L325.553 503.25C324.075 505.751 323.295 508.602 323.295 511.505C323.295 514.409 324.075 517.259 325.553 519.761L423.842 686.312C428.423 694.074 425.821 704.059 418.012 708.621L389.778 725.131C386.029 727.321 381.564 727.939 377.36 726.848C373.156 725.757 369.558 723.047 367.353 719.312L249.563 519.761C248.085 517.259 247.306 514.409 247.306 511.505C247.306 508.602 248.085 505.751 249.563 503.25L367.363 303.688C369.57 299.957 373.167 297.252 377.368 296.163C381.569 295.074 386.032 295.692 389.778 297.879L418.023 314.4C425.831 318.951 428.309 328.895 424.602 337.114C416.565 354.955 414.868 369.595 416.17 381.482C417.825 396.673 424.738 410.784 436.013 424.084C459.438 451.744 497.687 471.153 523.704 481.055C553.376 492.34 603.994 516.643 638.09 556.886C655.58 577.532 669.604 603.415 672.987 634.483C674.644 650.197 673.595 666.078 669.885 681.439C684.314 645.944 688.375 597.004 673.039 562.83L698.452 519.761C699.929 517.259 700.708 514.409 700.708 511.505C700.708 508.602 699.929 505.751 698.452 503.25L600.162 336.699C599.074 334.853 598.36 332.81 598.064 330.689C597.768 328.568 597.894 326.409 598.436 324.336C598.978 322.263 599.924 320.318 601.221 318.611C602.517 316.904 604.139 315.47 605.993 314.39L634.238 297.879C637.984 295.692 642.446 295.074 646.647 296.163C650.848 297.252 654.446 299.957 656.652 303.688L774.442 503.25C777.44 508.341 777.44 514.659 774.442 519.761L656.642 719.312C654.472 722.981 650.956 725.661 646.839 726.784C642.722 727.907 638.329 727.385 634.592 725.329V725.339Z" fill="white"/>
</g>
<defs>
<clipPath id="clip0">
<rect width="760" height="665" fill="white" transform="translate(132 179)"/>
</clipPath>
</defs>
</svg>
